<mxfile host="Electron" modified="2023-07-26T16:09:20.594Z" agent="Mozilla/5.0 (Windows NT 10.0; Win64; x64) AppleWebKit/537.36 (KHTML, like Gecko) draw.io/21.6.5 Chrome/114.0.5735.243 Electron/25.3.1 Safari/537.36" etag="dNdcuY3rlkgudanF2oCF" version="21.6.5" type="device">
  <diagram name="Страница 1" id="k5t3qgk74BqtDTql03Jg">
    <mxGraphModel dx="1038" dy="616" grid="1" gridSize="10" guides="1" tooltips="1" connect="1" arrows="1" fold="1" page="1" pageScale="1" pageWidth="827" pageHeight="1169" math="0" shadow="0">
      <root>
        <mxCell id="0" />
        <mxCell id="1" parent="0" />
        <mxCell id="CAUiZH5Sr9tukN3x7bnT-1" value="" style="edgeStyle=orthogonalEdgeStyle;rounded=0;orthogonalLoop=1;jettySize=auto;html=1;" edge="1" parent="1" source="CAUiZH5Sr9tukN3x7bnT-15" target="CAUiZH5Sr9tukN3x7bnT-5">
          <mxGeometry relative="1" as="geometry" />
        </mxCell>
        <mxCell id="CAUiZH5Sr9tukN3x7bnT-2" value="" style="edgeStyle=orthogonalEdgeStyle;rounded=0;orthogonalLoop=1;jettySize=auto;html=1;" edge="1" parent="1" source="CAUiZH5Sr9tukN3x7bnT-3" target="CAUiZH5Sr9tukN3x7bnT-15">
          <mxGeometry relative="1" as="geometry" />
        </mxCell>
        <mxCell id="CAUiZH5Sr9tukN3x7bnT-3" value="start" style="ellipse;whiteSpace=wrap;html=1;labelBackgroundColor=none;" vertex="1" parent="1">
          <mxGeometry x="266" y="23" width="120" height="80" as="geometry" />
        </mxCell>
        <mxCell id="CAUiZH5Sr9tukN3x7bnT-4" value="" style="edgeStyle=orthogonalEdgeStyle;rounded=0;orthogonalLoop=1;jettySize=auto;html=1;" edge="1" parent="1" source="CAUiZH5Sr9tukN3x7bnT-5" target="CAUiZH5Sr9tukN3x7bnT-20">
          <mxGeometry relative="1" as="geometry" />
        </mxCell>
        <mxCell id="CAUiZH5Sr9tukN3x7bnT-5" value="N = N array" style="shape=parallelogram;perimeter=parallelogramPerimeter;whiteSpace=wrap;html=1;fixedSize=1;labelBackgroundColor=none;" vertex="1" parent="1">
          <mxGeometry x="266" y="183" width="120" height="40" as="geometry" />
        </mxCell>
        <mxCell id="CAUiZH5Sr9tukN3x7bnT-6" value="" style="edgeStyle=orthogonalEdgeStyle;rounded=0;orthogonalLoop=1;jettySize=auto;html=1;" edge="1" parent="1" source="CAUiZH5Sr9tukN3x7bnT-7" target="CAUiZH5Sr9tukN3x7bnT-9">
          <mxGeometry relative="1" as="geometry" />
        </mxCell>
        <mxCell id="CAUiZH5Sr9tukN3x7bnT-7" value="i = 0" style="rounded=0;whiteSpace=wrap;html=1;" vertex="1" parent="1">
          <mxGeometry x="266" y="400" width="120" height="27" as="geometry" />
        </mxCell>
        <mxCell id="CAUiZH5Sr9tukN3x7bnT-8" value="" style="edgeStyle=orthogonalEdgeStyle;rounded=0;orthogonalLoop=1;jettySize=auto;html=1;" edge="1" parent="1" source="CAUiZH5Sr9tukN3x7bnT-9" target="CAUiZH5Sr9tukN3x7bnT-12">
          <mxGeometry relative="1" as="geometry" />
        </mxCell>
        <mxCell id="CAUiZH5Sr9tukN3x7bnT-9" value="i &amp;lt;&amp;nbsp;array.&lt;span style=&quot;font-family: &amp;quot;JetBrains Mono&amp;quot;, monospace; color: rgb(152, 118, 170);&quot;&gt;length&lt;/span&gt;" style="rhombus;whiteSpace=wrap;html=1;rounded=0;" vertex="1" parent="1">
          <mxGeometry x="253" y="470" width="146" height="80" as="geometry" />
        </mxCell>
        <mxCell id="CAUiZH5Sr9tukN3x7bnT-10" value="конец цикла" style="text;html=1;strokeColor=none;fillColor=none;align=center;verticalAlign=middle;whiteSpace=wrap;rounded=0;" vertex="1" parent="1">
          <mxGeometry x="400" y="470" width="60" height="30" as="geometry" />
        </mxCell>
        <mxCell id="CAUiZH5Sr9tukN3x7bnT-11" value="" style="edgeStyle=orthogonalEdgeStyle;rounded=0;orthogonalLoop=1;jettySize=auto;html=1;" edge="1" parent="1" source="CAUiZH5Sr9tukN3x7bnT-12">
          <mxGeometry relative="1" as="geometry">
            <mxPoint x="326" y="700" as="targetPoint" />
          </mxGeometry>
        </mxCell>
        <mxCell id="CAUiZH5Sr9tukN3x7bnT-12" value="array[i] = Integer.parserInt((&quot;-&quot;+array[i]))" style="whiteSpace=wrap;html=1;rounded=0;" vertex="1" parent="1">
          <mxGeometry x="223" y="600" width="317" height="30" as="geometry" />
        </mxCell>
        <mxCell id="CAUiZH5Sr9tukN3x7bnT-13" value="выполнение цикла" style="text;html=1;strokeColor=none;fillColor=none;align=center;verticalAlign=middle;whiteSpace=wrap;rounded=0;" vertex="1" parent="1">
          <mxGeometry x="360" y="540" width="60" height="30" as="geometry" />
        </mxCell>
        <mxCell id="CAUiZH5Sr9tukN3x7bnT-14" value="" style="edgeStyle=orthogonalEdgeStyle;rounded=0;orthogonalLoop=1;jettySize=auto;html=1;" edge="1" parent="1" source="CAUiZH5Sr9tukN3x7bnT-3" target="CAUiZH5Sr9tukN3x7bnT-15">
          <mxGeometry relative="1" as="geometry">
            <mxPoint x="326" y="103" as="sourcePoint" />
            <mxPoint x="326" y="183" as="targetPoint" />
          </mxGeometry>
        </mxCell>
        <mxCell id="CAUiZH5Sr9tukN3x7bnT-15" value="int N" style="whiteSpace=wrap;html=1;labelBackgroundColor=none;" vertex="1" parent="1">
          <mxGeometry x="266" y="133" width="120" height="23" as="geometry" />
        </mxCell>
        <mxCell id="CAUiZH5Sr9tukN3x7bnT-16" style="edgeStyle=orthogonalEdgeStyle;rounded=0;orthogonalLoop=1;jettySize=auto;html=1;entryX=0;entryY=0.5;entryDx=0;entryDy=0;" edge="1" parent="1" source="CAUiZH5Sr9tukN3x7bnT-17" target="CAUiZH5Sr9tukN3x7bnT-9">
          <mxGeometry relative="1" as="geometry">
            <Array as="points">
              <mxPoint x="160" y="730" />
              <mxPoint x="160" y="510" />
            </Array>
          </mxGeometry>
        </mxCell>
        <mxCell id="CAUiZH5Sr9tukN3x7bnT-17" value="i++" style="whiteSpace=wrap;html=1;rounded=0;" vertex="1" parent="1">
          <mxGeometry x="266" y="700" width="120" height="60" as="geometry" />
        </mxCell>
        <mxCell id="CAUiZH5Sr9tukN3x7bnT-18" value="end" style="ellipse;whiteSpace=wrap;html=1;rounded=0;" vertex="1" parent="1">
          <mxGeometry x="590" y="680" width="80" height="80" as="geometry" />
        </mxCell>
        <mxCell id="CAUiZH5Sr9tukN3x7bnT-19" value="" style="edgeStyle=orthogonalEdgeStyle;rounded=0;orthogonalLoop=1;jettySize=auto;html=1;" edge="1" parent="1" source="CAUiZH5Sr9tukN3x7bnT-20" target="CAUiZH5Sr9tukN3x7bnT-22">
          <mxGeometry relative="1" as="geometry" />
        </mxCell>
        <mxCell id="CAUiZH5Sr9tukN3x7bnT-20" value="int[] array" style="whiteSpace=wrap;html=1;labelBackgroundColor=none;" vertex="1" parent="1">
          <mxGeometry x="266" y="240" width="120" height="40" as="geometry" />
        </mxCell>
        <mxCell id="CAUiZH5Sr9tukN3x7bnT-21" value="" style="edgeStyle=orthogonalEdgeStyle;rounded=0;orthogonalLoop=1;jettySize=auto;html=1;" edge="1" parent="1" source="CAUiZH5Sr9tukN3x7bnT-22" target="CAUiZH5Sr9tukN3x7bnT-7">
          <mxGeometry relative="1" as="geometry" />
        </mxCell>
        <mxCell id="CAUiZH5Sr9tukN3x7bnT-22" value="array = =createArray(N)" style="shape=parallelogram;perimeter=parallelogramPerimeter;whiteSpace=wrap;html=1;fixedSize=1;" vertex="1" parent="1">
          <mxGeometry x="266" y="300" width="120" height="40" as="geometry" />
        </mxCell>
        <mxCell id="CAUiZH5Sr9tukN3x7bnT-23" value="" style="edgeStyle=orthogonalEdgeStyle;rounded=0;orthogonalLoop=1;jettySize=auto;html=1;" edge="1" parent="1" source="CAUiZH5Sr9tukN3x7bnT-9" target="CAUiZH5Sr9tukN3x7bnT-25">
          <mxGeometry relative="1" as="geometry">
            <mxPoint x="514" y="1078" as="targetPoint" />
            <mxPoint x="399" y="510" as="sourcePoint" />
            <Array as="points">
              <mxPoint x="630" y="510" />
            </Array>
          </mxGeometry>
        </mxCell>
        <mxCell id="CAUiZH5Sr9tukN3x7bnT-24" value="" style="edgeStyle=orthogonalEdgeStyle;rounded=0;orthogonalLoop=1;jettySize=auto;html=1;" edge="1" parent="1" source="CAUiZH5Sr9tukN3x7bnT-25" target="CAUiZH5Sr9tukN3x7bnT-27">
          <mxGeometry relative="1" as="geometry" />
        </mxCell>
        <mxCell id="CAUiZH5Sr9tukN3x7bnT-25" value="return array" style="rounded=0;whiteSpace=wrap;html=1;" vertex="1" parent="1">
          <mxGeometry x="570" y="540" width="120" height="20" as="geometry" />
        </mxCell>
        <mxCell id="CAUiZH5Sr9tukN3x7bnT-26" value="" style="edgeStyle=orthogonalEdgeStyle;rounded=0;orthogonalLoop=1;jettySize=auto;html=1;entryX=0.5;entryY=0;entryDx=0;entryDy=0;" edge="1" parent="1" source="CAUiZH5Sr9tukN3x7bnT-27">
          <mxGeometry relative="1" as="geometry">
            <mxPoint x="630" y="680" as="targetPoint" />
          </mxGeometry>
        </mxCell>
        <mxCell id="CAUiZH5Sr9tukN3x7bnT-27" value="print array" style="shape=document;whiteSpace=wrap;html=1;boundedLbl=1;" vertex="1" parent="1">
          <mxGeometry x="570" y="587.5" width="120" height="42.5" as="geometry" />
        </mxCell>
      </root>
    </mxGraphModel>
  </diagram>
</mxfile>
